<?xml version="1.0" standalone="no"?>
<!DOCTYPE svg PUBLIC "-//W3C//DTD SVG 20010904//EN"
 "http://www.w3.org/TR/2001/REC-SVG-20010904/DTD/svg10.dtd">
<svg version="1.0" xmlns="http://www.w3.org/2000/svg"
 width="260.000000pt" height="260.000000pt" viewBox="0 0 260.000000 260.000000"
 preserveAspectRatio="xMidYMid meet">
<metadata>
Created by potrace 1.14, written by Peter Selinger 2001-2017
</metadata>
<g transform="translate(0.000000,260.000000) scale(0.100000,-0.100000)"
fill="#000000" stroke="none">
<path d="M0 1300 l0 -1300 1300 0 1300 0 0 1300 0 1300 -1300 0 -1300 0 0
-1300z m1363 1067 c411 -98 705 -433 766 -871 14 -99 14 -293 0 -392 -61 -442
-365 -780 -783 -871 -56 -12 -167 -16 -538 -20 l-468 -5 0 1092 0 1091 478 -4
c394 -3 489 -7 545 -20z m727 17 c0 -12 -204 -254 -214 -254 -7 0 -28 16 -47
36 -18 20 -72 61 -119 92 -47 30 -87 57 -89 59 -2 1 8 18 23 38 l27 35 210 0
c115 0 209 -3 209 -6z m-112 -1906 c69 -109 162 -260 162 -264 0 -2 -97 -4
-215 -4 l-214 0 -32 46 c-17 25 -27 49 -23 53 5 4 34 23 64 44 30 20 89 70
130 110 41 41 78 75 81 76 4 0 25 -27 47 -61z"/>
<path d="M718 2024 c-5 -4 -8 -331 -8 -726 l0 -719 298 3 297 3 85 41 c146 71
246 171 311 310 84 181 98 439 34 632 -72 217 -250 393 -445 442 -52 13 -561
26 -572 14z m789 -171 c28 -24 59 -55 68 -69 15 -24 14 -26 -62 -122 -43 -53
-80 -99 -83 -102 -3 -3 -20 -24 -38 -48 l-33 -42 52 -88 c29 -48 87 -141 129
-207 42 -66 89 -141 104 -167 l28 -48 -36 -64 c-40 -71 -136 -172 -192 -202
-35 -18 -37 -18 -48 -1 -74 122 -290 447 -296 447 -5 0 -36 -35 -70 -77 -34
-43 -96 -120 -138 -171 l-77 -93 -3 256 -2 257 147 185 c82 102 199 248 261
324 l113 139 62 -31 c34 -18 85 -52 114 -76z"/>
</g>
</svg>
